<svg version="1.0" xmlns="http://www.w3.org/2000/svg" width="340" height="285.333" viewBox="0 0 255 214"><path d="M8.3 1.5C6.5 2.3 4.1 4.4 3 6.2c-1.9 3.2-2 4.9-2 70.6 0 74.8.1 76 6.6 90 10.5 22.9 29.2 37.7 56.2 44.4 12.2 3.1 35.1 3.1 46.4 0 18.3-5 28-10.4 40.4-22.7 7.7-7.6 9.8-10.5 13.8-18.5 2.8-5.8 5.3-12.8 6.4-17.9l1.8-8.5 9 13c5 7.1 15.1 21.6 22.4 32.2 10.5 15.2 14.2 19.8 17.4 21.6 11.7 6.7 26.6 2.5 31.7-8.9 1.8-3.8 1.9-9.2 1.9-96.5 0-103.2.4-96.8-6.9-101.7C242-.8 234.4.8 229.8 7.2l-2.3 3.3-.5 82.4-.5 82.5-26.7-38.6L173 98.2V54.9c0-48.4 0-48-6.9-52.6-6.1-4.1-13.7-2.5-18.3 3.9-2.2 3.2-2.3 4.2-2.8 27.1l-.5 23.8L127.2 32C107.1 2.9 105.8 1.7 94.6 1.2c-6-.3-7.8 0-11.6 2.1-2.5 1.3-5.8 4.3-7.5 6.6l-3 4.3-.3 86.5-.2 86.5-3.3-.6c-1.7-.3-6.9-2.4-11.4-4.6-14.4-7.1-24.7-19.9-27.8-34.7-1.2-5.5-1.5-19.2-1.5-71.8 0-63.1-.1-65.1-2-68.3C22.1.8 15.1-1.5 8.3 1.5zm114.4 69.8l22.3 32.2v20c0 22-.9 27.9-5.8 36.8-3.6 6.7-9.9 13.5-16.5 18.1-5.4 3.7-21.3 10-22.9 9-1-.6-1.1-148.4 0-148.4.4.1 10.7 14.6 22.9 32.3z"/></svg>